<svg width="16" height="16" viewBox="0 0 16 16" fill="none" xmlns="http://www.w3.org/2000/svg">
<g clip-path="url(#clip0_290_3814)">
<path d="M2.17586 14.7304C2.17586 14.7304 2.16165 15.088 2.51102 15.088C2.94566 15.088 6.54418 15.0833 6.54418 15.0833L6.5501 11.7785C6.5501 11.7785 6.49326 11.2337 7.02205 11.2337H8.69548C9.32079 11.2337 9.2823 11.7785 9.2823 11.7785L9.2752 15.0726C9.2752 15.0726 12.6872 15.0726 13.2231 15.0726C13.6666 15.0726 13.6465 14.6273 13.6465 14.6273V8.53467L8.0826 3.58545L2.17586 8.53467V14.7304Z" fill="#DFD1A7"/>
<path d="M0 8.074C0 8.074 0.501554 8.99835 1.59526 8.074L8.13146 2.54446L14.2597 8.03965C15.5257 8.95275 16 8.03965 16 8.03965L8.13146 0.911896L0 8.074Z" fill="#DFD1A7"/>
<path d="M14.1115 2.53146H12.5352L12.5417 4.44294L14.1115 5.77469V2.53146Z" fill="#DFD1A7"/>
</g>
<defs>
<clipPath id="clip0_290_3814">
<rect width="16" height="16" fill="white"/>
</clipPath>
</defs>
</svg>
