<svg width="16" height="14" viewBox="0 0 16 14" fill="none" xmlns="http://www.w3.org/2000/svg">
<path d="M1.53568 4.58937C1.73808 4.73219 2.34818 5.15638 3.36602 5.8617C4.38389 6.56703 5.16365 7.11012 5.70532 7.49099C5.76484 7.53274 5.89127 7.62349 6.08469 7.76337C6.27815 7.90335 6.43889 8.01646 6.5668 8.10275C6.6948 8.189 6.84953 8.28575 7.03117 8.39286C7.21274 8.49988 7.38389 8.58038 7.5446 8.63367C7.70535 8.68739 7.85414 8.714 7.99102 8.714H8H8.00901C8.14589 8.714 8.29475 8.68736 8.45549 8.63367C8.61614 8.58038 8.78745 8.49979 8.96886 8.39286C9.15037 8.28563 9.30511 8.18897 9.43311 8.10275C9.56111 8.01646 9.72173 7.90335 9.91524 7.76337C10.1086 7.62336 10.2352 7.53274 10.2947 7.49099C10.8423 7.11012 12.2352 6.14282 14.4733 4.58918C14.9078 4.28574 15.2708 3.9196 15.5624 3.49101C15.8542 3.0626 16 2.61318 16 2.14299C16 1.75008 15.8586 1.41374 15.5758 1.134C15.293 0.854207 14.9582 0.714386 14.5714 0.714386H1.42851C0.970209 0.714386 0.617514 0.869124 0.370489 1.1786C0.123496 1.48814 0 1.87505 0 2.33929C0 2.71428 0.163745 3.12064 0.491077 3.55812C0.818379 3.99562 1.1667 4.33941 1.53568 4.58937Z" fill="#DFD1A7"/>
<path d="M15.107 5.54465C13.1548 6.86596 11.6725 7.89283 10.6607 8.62506C10.3215 8.87496 10.0462 9.07004 9.83486 9.20983C9.62348 9.34971 9.34237 9.49256 8.99112 9.63833C8.63999 9.78431 8.31275 9.85708 8.00912 9.85708H8.00002H7.99104C7.68748 9.85708 7.36005 9.78431 7.00892 9.63833C6.65779 9.49256 6.37649 9.34971 6.16518 9.20983C5.95393 9.07004 5.67861 8.87496 5.33936 8.62506C4.53574 8.03581 3.0566 7.00888 0.901876 5.54465C0.562504 5.31861 0.26191 5.05952 0 4.7679V11.857C0 12.2501 0.139821 12.5862 0.419618 12.866C0.699354 13.1459 1.03572 13.2857 1.4286 13.2857H14.5715C14.9643 13.2857 15.3006 13.1459 15.5804 12.866C15.8602 12.5861 16 12.2501 16 11.857V4.7679C15.744 5.05348 15.4465 5.31258 15.107 5.54465Z" fill="#DFD1A7"/>
</svg>
